<svg fill="none" height="627" viewBox="0 0 1200 627" width="1200" xmlns="http://www.w3.org/2000/svg"><path d="m0 0h1200v627h-1200z" fill="#fff"/><g fill="#121212"><path clip-rule="evenodd" d="m378.744 361.947c1.643 21.267 1.643 31.236 1.643 42.118h-48.829c0-2.371.042-4.539.084-6.738.132-6.835.27-13.962-.829-28.356-1.452-21.072-10.457-25.755-27.015-25.755h-14.67-62.128v-38.34h79.122c20.915 0 31.372-6.412 31.372-23.387 0-14.926-10.457-23.972-31.372-23.972h-79.122v-37.517h87.836c47.35 0 70.88 22.536 70.88 58.535 0 26.926-16.558 44.486-38.926 47.413 18.882 3.805 29.92 14.634 31.954 35.999z" fill-rule="evenodd"/><path d="m227 404.065v-28.582h51.63c8.624 0 10.496 6.446 10.496 10.289v18.293z"/><path d="m967.943 275.524h-48.395l-22.025 30.95-21.444-30.95h-51.873l46.656 63.943-50.714 66.278h48.396l25.792-35.329 25.791 35.329h51.873l-51.004-68.322z"/><path d="m663.111 297.105c-5.507-15.183-17.388-25.694-40.282-25.694-19.416 0-33.326 8.76-40.281 23.066v-19.562h-46.946v130.22h46.946v-63.942c0-19.562 5.506-32.409 20.865-32.409 14.2 0 17.678 9.343 17.678 27.154v69.197h46.946v-63.942c0-19.562 5.216-32.409 20.865-32.409 14.2 0 17.388 9.343 17.388 27.154v69.197h46.946v-81.752c0-27.154-10.432-51.972-46.077-51.972-21.734 0-37.093 11.095-44.048 25.694z"/><path d="m486.716 354.599c-4.347 10.219-12.461 14.598-25.212 14.598-14.2 0-25.792-7.591-26.951-23.65h90.705v-13.138c0-35.329-22.893-65.111-66.073-65.111-40.281 0-70.419 29.49-70.419 70.658 0 41.46 29.559 66.57 70.999 66.57 34.196 0 57.959-16.642 64.624-46.424zm-51.583-31.826c1.738-12.263 8.404-21.606 23.473-21.606 13.91 0 21.444 9.927 22.024 21.606z"/><path d="m768.592 275.78v130.22h46.946v-130.22zm-.29-12.263h47.526v-41.461h-47.526z"/></g></svg>